<mxfile host="app.diagrams.net" modified="2024-03-18T17:24:15.797Z" agent="Mozilla/5.0 (Windows NT 10.0; Win64; x64) AppleWebKit/537.36 (KHTML, like Gecko) Chrome/122.0.0.0 Safari/537.36" etag="QtZiJIVOZttO4RUObgnK" version="24.0.6" type="device">
  <diagram id="C5RBs43oDa-KdzZeNtuy" name="Page-1">
    <mxGraphModel dx="797" dy="351" grid="1" gridSize="10" guides="1" tooltips="1" connect="1" arrows="1" fold="1" page="1" pageScale="1" pageWidth="827" pageHeight="1169" math="0" shadow="0">
      <root>
        <mxCell id="WIyWlLk6GJQsqaUBKTNV-0" />
        <mxCell id="WIyWlLk6GJQsqaUBKTNV-1" parent="WIyWlLk6GJQsqaUBKTNV-0" />
        <mxCell id="FvksJj4i_no2qAITZPdL-0" value="&amp;lt;&amp;lt;interface&amp;gt;&amp;gt;&lt;div&gt;&lt;b&gt;Usuário&lt;/b&gt;&lt;/div&gt;" style="swimlane;fontStyle=0;childLayout=stackLayout;horizontal=1;startSize=26;fillColor=none;horizontalStack=0;resizeParent=1;resizeParentMax=0;resizeLast=0;collapsible=1;marginBottom=0;whiteSpace=wrap;html=1;fontSize=4;strokeWidth=2;" parent="WIyWlLk6GJQsqaUBKTNV-1" vertex="1">
          <mxGeometry x="30" y="230" width="110" height="90" as="geometry">
            <mxRectangle x="100" y="150" width="60" height="26" as="alternateBounds" />
          </mxGeometry>
        </mxCell>
        <mxCell id="FvksJj4i_no2qAITZPdL-1" value="+ email: String&lt;div&gt;+ senha: String&lt;/div&gt;" style="text;strokeColor=none;fillColor=none;align=left;verticalAlign=top;spacingLeft=4;spacingRight=4;overflow=hidden;rotatable=0;points=[[0,0.5],[1,0.5]];portConstraint=eastwest;whiteSpace=wrap;html=1;fontSize=4;" parent="FvksJj4i_no2qAITZPdL-0" vertex="1">
          <mxGeometry y="26" width="110" height="24" as="geometry" />
        </mxCell>
        <mxCell id="yKpozsiW5M5WMIvwTd8L-0" value="&lt;font style=&quot;font-size: 4px;&quot;&gt;+ RedefinirSenha(email:String,novaSenha: String): void&lt;/font&gt;&lt;div style=&quot;font-size: 4px;&quot;&gt;&lt;font style=&quot;font-size: 4px;&quot;&gt;&lt;br style=&quot;font-size: 4px;&quot;&gt;&lt;/font&gt;&lt;/div&gt;&lt;div style=&quot;font-size: 4px;&quot;&gt;&lt;font style=&quot;font-size: 4px;&quot;&gt;+Autenticação(email:String, senha:String):Boolena&lt;/font&gt;&lt;/div&gt;" style="text;strokeColor=default;fillColor=none;align=left;verticalAlign=middle;spacingLeft=4;spacingRight=4;overflow=hidden;rotatable=0;points=[[0,0.5],[1,0.5]];portConstraint=eastwest;whiteSpace=wrap;html=1;fontSize=4;" parent="FvksJj4i_no2qAITZPdL-0" vertex="1">
          <mxGeometry y="50" width="110" height="40" as="geometry" />
        </mxCell>
        <mxCell id="yKpozsiW5M5WMIvwTd8L-2" value="&amp;lt;&amp;lt;Interface&amp;gt;&amp;gt;&lt;div&gt;&lt;b&gt;LoginEmpresa&lt;/b&gt;&lt;/div&gt;" style="swimlane;fontStyle=0;align=center;verticalAlign=middle;childLayout=stackLayout;horizontal=1;startSize=26;horizontalStack=0;resizeParent=1;resizeParentMax=0;resizeLast=0;collapsible=1;marginBottom=0;whiteSpace=wrap;html=1;strokeColor=default;strokeWidth=2;fontFamily=Helvetica;fontSize=4;fontColor=default;fillColor=none;" parent="WIyWlLk6GJQsqaUBKTNV-1" vertex="1">
          <mxGeometry x="170" y="110" width="110" height="86" as="geometry" />
        </mxCell>
        <mxCell id="yKpozsiW5M5WMIvwTd8L-3" value="+ cnpj: String" style="text;strokeColor=none;fillColor=none;align=left;verticalAlign=top;spacingLeft=4;spacingRight=4;overflow=hidden;rotatable=0;points=[[0,0.5],[1,0.5]];portConstraint=eastwest;whiteSpace=wrap;html=1;fontFamily=Helvetica;fontSize=4;fontColor=default;fontStyle=0;" parent="yKpozsiW5M5WMIvwTd8L-2" vertex="1">
          <mxGeometry y="26" width="110" height="26" as="geometry" />
        </mxCell>
        <mxCell id="yKpozsiW5M5WMIvwTd8L-4" value="" style="line;strokeWidth=2;fillColor=none;align=center;verticalAlign=middle;spacingTop=-1;spacingLeft=3;spacingRight=3;rotatable=0;labelPosition=right;points=[];portConstraint=eastwest;strokeColor=default;fontFamily=Helvetica;fontSize=4;fontColor=default;fontStyle=0;" parent="yKpozsiW5M5WMIvwTd8L-2" vertex="1">
          <mxGeometry y="52" width="110" height="8" as="geometry" />
        </mxCell>
        <mxCell id="yKpozsiW5M5WMIvwTd8L-5" value="+ AutenticaçãoEmpresa (cnpj:String, senha:String): Boolean" style="text;strokeColor=none;fillColor=none;align=left;verticalAlign=top;spacingLeft=4;spacingRight=4;overflow=hidden;rotatable=0;points=[[0,0.5],[1,0.5]];portConstraint=eastwest;whiteSpace=wrap;html=1;fontFamily=Helvetica;fontSize=4;fontColor=default;fontStyle=0;" parent="yKpozsiW5M5WMIvwTd8L-2" vertex="1">
          <mxGeometry y="60" width="110" height="26" as="geometry" />
        </mxCell>
        <mxCell id="yKpozsiW5M5WMIvwTd8L-7" value="Extends" style="html=1;verticalAlign=bottom;endArrow=block;curved=0;rounded=0;fontSize=5;" parent="WIyWlLk6GJQsqaUBKTNV-1" edge="1">
          <mxGeometry width="80" relative="1" as="geometry">
            <mxPoint x="230" y="200" as="sourcePoint" />
            <mxPoint x="140" y="280" as="targetPoint" />
          </mxGeometry>
        </mxCell>
        <mxCell id="yKpozsiW5M5WMIvwTd8L-12" value="&amp;lt;&amp;lt;Interface&amp;gt;&amp;gt;&lt;div&gt;&lt;b&gt;LoginColaborador&lt;/b&gt;&lt;/div&gt;" style="swimlane;fontStyle=0;align=center;verticalAlign=middle;childLayout=stackLayout;horizontal=1;startSize=26;horizontalStack=0;resizeParent=1;resizeParentMax=0;resizeLast=0;collapsible=1;marginBottom=0;whiteSpace=wrap;html=1;strokeColor=default;strokeWidth=2;fontFamily=Helvetica;fontSize=4;fontColor=default;fillColor=none;" parent="WIyWlLk6GJQsqaUBKTNV-1" vertex="1">
          <mxGeometry x="170" y="390" width="110" height="86" as="geometry" />
        </mxCell>
        <mxCell id="yKpozsiW5M5WMIvwTd8L-13" value="+ matricula: int" style="text;strokeColor=none;fillColor=none;align=left;verticalAlign=top;spacingLeft=4;spacingRight=4;overflow=hidden;rotatable=0;points=[[0,0.5],[1,0.5]];portConstraint=eastwest;whiteSpace=wrap;html=1;fontFamily=Helvetica;fontSize=4;fontColor=default;fontStyle=0;" parent="yKpozsiW5M5WMIvwTd8L-12" vertex="1">
          <mxGeometry y="26" width="110" height="26" as="geometry" />
        </mxCell>
        <mxCell id="yKpozsiW5M5WMIvwTd8L-14" value="" style="line;strokeWidth=2;fillColor=none;align=center;verticalAlign=middle;spacingTop=-1;spacingLeft=3;spacingRight=3;rotatable=0;labelPosition=right;points=[];portConstraint=eastwest;strokeColor=default;fontFamily=Helvetica;fontSize=4;fontColor=default;fontStyle=0;" parent="yKpozsiW5M5WMIvwTd8L-12" vertex="1">
          <mxGeometry y="52" width="110" height="8" as="geometry" />
        </mxCell>
        <mxCell id="yKpozsiW5M5WMIvwTd8L-15" value="+ AutenticaçãoColaborador (matricula: int, senha: String): Boolean" style="text;strokeColor=none;fillColor=none;align=left;verticalAlign=top;spacingLeft=4;spacingRight=4;overflow=hidden;rotatable=0;points=[[0,0.5],[1,0.5]];portConstraint=eastwest;whiteSpace=wrap;html=1;fontFamily=Helvetica;fontSize=4;fontColor=default;fontStyle=0;" parent="yKpozsiW5M5WMIvwTd8L-12" vertex="1">
          <mxGeometry y="60" width="110" height="26" as="geometry" />
        </mxCell>
        <mxCell id="yKpozsiW5M5WMIvwTd8L-17" value="Extends" style="html=1;verticalAlign=bottom;endArrow=block;curved=0;rounded=0;fontSize=5;exitX=0.5;exitY=0;exitDx=0;exitDy=0;entryX=1.027;entryY=0.125;entryDx=0;entryDy=0;entryPerimeter=0;" parent="WIyWlLk6GJQsqaUBKTNV-1" source="yKpozsiW5M5WMIvwTd8L-12" edge="1">
          <mxGeometry width="80" relative="1" as="geometry">
            <mxPoint x="223.02" y="378.98" as="sourcePoint" />
            <mxPoint x="140.00000000000003" y="280" as="targetPoint" />
          </mxGeometry>
        </mxCell>
        <mxCell id="S34Lp0AM1BOrtF_JxziZ-0" value="Faculdade" style="swimlane;fontStyle=0;align=center;verticalAlign=middle;childLayout=stackLayout;horizontal=1;startSize=26;horizontalStack=0;resizeParent=1;resizeParentMax=0;resizeLast=0;collapsible=1;marginBottom=0;whiteSpace=wrap;html=1;strokeColor=default;strokeWidth=1;fontFamily=Helvetica;fontSize=4;fontColor=default;fillColor=none;" parent="WIyWlLk6GJQsqaUBKTNV-1" vertex="1">
          <mxGeometry x="310" y="73" width="120" height="130" as="geometry" />
        </mxCell>
        <mxCell id="S34Lp0AM1BOrtF_JxziZ-1" value="- id_empresa:uuid&lt;div&gt;+ id_externo: int&lt;/div&gt;&lt;div&gt;+ nome: String&lt;/div&gt;&lt;div&gt;+ endereço: Endereco&lt;/div&gt;&lt;div&gt;+ email: String&lt;/div&gt;&lt;div&gt;+ senha: String&lt;/div&gt;&lt;div&gt;- cupons: List&amp;lt;Cupons&amp;gt;&lt;/div&gt;&lt;div&gt;- alunosList&amp;lt;Alunos&amp;gt;&lt;/div&gt;&lt;div&gt;+ senha_atualizada: LocalDateTime&lt;/div&gt;" style="text;strokeColor=none;fillColor=none;align=left;verticalAlign=top;spacingLeft=4;spacingRight=4;overflow=hidden;rotatable=0;points=[[0,0.5],[1,0.5]];portConstraint=eastwest;whiteSpace=wrap;html=1;fontFamily=Helvetica;fontSize=4;fontColor=default;fontStyle=0;" parent="S34Lp0AM1BOrtF_JxziZ-0" vertex="1">
          <mxGeometry y="26" width="120" height="54" as="geometry" />
        </mxCell>
        <mxCell id="S34Lp0AM1BOrtF_JxziZ-2" value="" style="line;strokeWidth=1;fillColor=none;align=center;verticalAlign=middle;spacingTop=-1;spacingLeft=3;spacingRight=3;rotatable=0;labelPosition=right;points=[];portConstraint=eastwest;strokeColor=default;fontFamily=Helvetica;fontSize=4;fontColor=default;fontStyle=0;" parent="S34Lp0AM1BOrtF_JxziZ-0" vertex="1">
          <mxGeometry y="80" width="120" height="8" as="geometry" />
        </mxCell>
        <mxCell id="S34Lp0AM1BOrtF_JxziZ-3" value="+ CadastrarEmpresa(nomw:String, cnpj:String, endereço: Endereco. email: String, senha:String): void&lt;div&gt;+ Atualizar Dados(nome: String, endereço: Endereco): void&amp;nbsp;&lt;/div&gt;&lt;div&gt;+ RedefinirSenha(email: String, novaSenha: String): void&lt;/div&gt;&lt;div&gt;+ AutenticaçãoEmpresa(cnpj: String, senha: String): Boolean&lt;/div&gt;&lt;div&gt;+ ListaAlunos(id_externo:int): List&amp;lt;Alunosr&amp;gt;&lt;/div&gt;&lt;div&gt;+ ListarCupons(id_externo: int): List&amp;lt;Cupons&amp;gt;&lt;/div&gt;" style="text;strokeColor=none;fillColor=none;align=left;verticalAlign=top;spacingLeft=4;spacingRight=4;overflow=hidden;rotatable=0;points=[[0,0.5],[1,0.5]];portConstraint=eastwest;whiteSpace=wrap;html=1;fontFamily=Helvetica;fontSize=4;fontColor=default;fontStyle=0;" parent="S34Lp0AM1BOrtF_JxziZ-0" vertex="1">
          <mxGeometry y="88" width="120" height="42" as="geometry" />
        </mxCell>
        <mxCell id="K5k7aHJ0knSRKEM8WF4J-0" value="Aluno" style="swimlane;fontStyle=0;align=center;verticalAlign=middle;childLayout=stackLayout;horizontal=1;startSize=26;horizontalStack=0;resizeParent=1;resizeParentMax=0;resizeLast=0;collapsible=1;marginBottom=0;whiteSpace=wrap;html=1;strokeColor=default;strokeWidth=1;fontFamily=Helvetica;fontSize=4;fontColor=default;fillColor=none;" parent="WIyWlLk6GJQsqaUBKTNV-1" vertex="1">
          <mxGeometry x="310" y="390" width="120" height="120" as="geometry" />
        </mxCell>
        <mxCell id="K5k7aHJ0knSRKEM8WF4J-1" value="+ id_aluno:uuid&lt;div&gt;+ matrícula: int&lt;/div&gt;&lt;div&gt;+ nome: String&lt;/div&gt;&lt;div&gt;+ telefone: String&lt;/div&gt;&lt;div&gt;+ id_empresa: int&lt;/div&gt;&lt;div&gt;+ email: String&lt;/div&gt;&lt;div&gt;+ senha: String&lt;/div&gt;&lt;div&gt;+ cupons: List &amp;lt;Cupons&amp;gt;&lt;/div&gt;&lt;div&gt;+ senha_atualizada: LocalDateTime&lt;/div&gt;&lt;div&gt;&lt;br&gt;&lt;/div&gt;" style="text;strokeColor=none;fillColor=none;align=left;verticalAlign=top;spacingLeft=4;spacingRight=4;overflow=hidden;rotatable=0;points=[[0,0.5],[1,0.5]];portConstraint=eastwest;whiteSpace=wrap;html=1;fontFamily=Helvetica;fontSize=4;fontColor=default;fontStyle=0;" parent="K5k7aHJ0knSRKEM8WF4J-0" vertex="1">
          <mxGeometry y="26" width="120" height="54" as="geometry" />
        </mxCell>
        <mxCell id="K5k7aHJ0knSRKEM8WF4J-2" value="" style="line;strokeWidth=1;fillColor=none;align=center;verticalAlign=middle;spacingTop=-1;spacingLeft=3;spacingRight=3;rotatable=0;labelPosition=right;points=[];portConstraint=eastwest;strokeColor=default;fontFamily=Helvetica;fontSize=4;fontColor=default;fontStyle=0;" parent="K5k7aHJ0knSRKEM8WF4J-0" vertex="1">
          <mxGeometry y="80" width="120" height="8" as="geometry" />
        </mxCell>
        <mxCell id="K5k7aHJ0knSRKEM8WF4J-3" value="+ CadastrarAluno(aluno: Aluno): void&lt;div&gt;+ Atualizar Dados(nome: String, endereço: Endereco): void&amp;nbsp;&lt;/div&gt;&lt;div&gt;+ RedefinirSenha(email: String, novaSenha: String): void&lt;/div&gt;&lt;div&gt;+ AutenticaçãoEmpresa(cnpj: String, senha: String): Boolean&lt;/div&gt;&lt;div&gt;+ ListarCupons(id_externo: int): List&amp;lt;Cupons&amp;gt;&lt;/div&gt;" style="text;strokeColor=none;fillColor=none;align=left;verticalAlign=top;spacingLeft=4;spacingRight=4;overflow=hidden;rotatable=0;points=[[0,0.5],[1,0.5]];portConstraint=eastwest;whiteSpace=wrap;html=1;fontFamily=Helvetica;fontSize=4;fontColor=default;fontStyle=0;" parent="K5k7aHJ0knSRKEM8WF4J-0" vertex="1">
          <mxGeometry y="88" width="120" height="32" as="geometry" />
        </mxCell>
        <mxCell id="GGQ6fwsEuKa8pnycy1Hb-0" value="Endereco" style="swimlane;fontStyle=0;childLayout=stackLayout;horizontal=1;startSize=26;fillColor=none;horizontalStack=0;resizeParent=1;resizeParentMax=0;resizeLast=0;collapsible=1;marginBottom=0;whiteSpace=wrap;html=1;strokeColor=default;strokeWidth=1;align=center;verticalAlign=middle;fontFamily=Helvetica;fontSize=4;fontColor=default;" parent="WIyWlLk6GJQsqaUBKTNV-1" vertex="1">
          <mxGeometry x="470" y="250" width="90" height="80" as="geometry" />
        </mxCell>
        <mxCell id="GGQ6fwsEuKa8pnycy1Hb-1" value="- id_endereco: uuid&lt;div&gt;+ logradouro: String&lt;/div&gt;&lt;div&gt;+ nome_loca: String&lt;/div&gt;&lt;div&gt;+ numero: int&lt;/div&gt;&lt;div&gt;+ bairro: String&lt;/div&gt;&lt;div&gt;+ cidade: String&lt;/div&gt;&lt;div&gt;+ estado: String&lt;/div&gt;&lt;div&gt;+ pais: String&lt;/div&gt;&lt;div&gt;+ cep: String&lt;/div&gt;" style="text;strokeColor=none;fillColor=none;align=left;verticalAlign=top;spacingLeft=4;spacingRight=4;overflow=hidden;rotatable=0;points=[[0,0.5],[1,0.5]];portConstraint=eastwest;whiteSpace=wrap;html=1;fontFamily=Helvetica;fontSize=4;fontColor=default;fontStyle=0;" parent="GGQ6fwsEuKa8pnycy1Hb-0" vertex="1">
          <mxGeometry y="26" width="90" height="54" as="geometry" />
        </mxCell>
        <mxCell id="XVnDwLYDLdE-HTdhM5Gb-0" value="&lt;span style=&quot;font-weight: normal;&quot;&gt;Cupons&lt;/span&gt;" style="swimlane;fontStyle=1;align=center;verticalAlign=top;childLayout=stackLayout;horizontal=1;startSize=26;horizontalStack=0;resizeParent=1;resizeParentMax=0;resizeLast=0;collapsible=1;marginBottom=0;whiteSpace=wrap;html=1;fontSize=4;" parent="WIyWlLk6GJQsqaUBKTNV-1" vertex="1">
          <mxGeometry x="570" y="160" width="109" height="110" as="geometry" />
        </mxCell>
        <mxCell id="XVnDwLYDLdE-HTdhM5Gb-1" value="+ id_equipamento: uuid&lt;div&gt;+ nome: String&lt;/div&gt;&lt;div&gt;+ tipo: String&lt;/div&gt;&lt;div&gt;+ numero: Long&lt;/div&gt;&lt;div&gt;+ empresa: Empresa&lt;/div&gt;&lt;div&gt;+ disponibilidade: Status&amp;nbsp;&lt;/div&gt;&lt;div&gt;+ avaliação: List&amp;lt;Avaliações&amp;gt;&lt;/div&gt;&lt;div&gt;&lt;br&gt;&lt;/div&gt;" style="text;strokeColor=none;fillColor=none;align=left;verticalAlign=top;spacingLeft=4;spacingRight=4;overflow=hidden;rotatable=0;points=[[0,0.5],[1,0.5]];portConstraint=eastwest;whiteSpace=wrap;html=1;fontSize=4;" parent="XVnDwLYDLdE-HTdhM5Gb-0" vertex="1">
          <mxGeometry y="26" width="109" height="44" as="geometry" />
        </mxCell>
        <mxCell id="XVnDwLYDLdE-HTdhM5Gb-2" value="" style="line;strokeWidth=1;fillColor=none;align=left;verticalAlign=middle;spacingTop=-1;spacingLeft=3;spacingRight=3;rotatable=0;labelPosition=right;points=[];portConstraint=eastwest;strokeColor=inherit;" parent="XVnDwLYDLdE-HTdhM5Gb-0" vertex="1">
          <mxGeometry y="70" width="109" height="8" as="geometry" />
        </mxCell>
        <mxCell id="XVnDwLYDLdE-HTdhM5Gb-3" value="+ CadastrarCupons (cupons: Cupons): void&lt;div&gt;+ AtualizarCupons (cupons:Cupons): Cupons&lt;/div&gt;&lt;div&gt;+ExcluirCupons (cupons: Cupons): void&lt;/div&gt;" style="text;strokeColor=none;fillColor=none;align=left;verticalAlign=top;spacingLeft=4;spacingRight=4;overflow=hidden;rotatable=0;points=[[0,0.5],[1,0.5]];portConstraint=eastwest;whiteSpace=wrap;html=1;fontSize=4;" parent="XVnDwLYDLdE-HTdhM5Gb-0" vertex="1">
          <mxGeometry y="78" width="109" height="32" as="geometry" />
        </mxCell>
        <mxCell id="XVnDwLYDLdE-HTdhM5Gb-4" value="&amp;lt;Enum&amp;gt;" style="swimlane;fontStyle=0;childLayout=stackLayout;horizontal=1;startSize=26;fillColor=none;horizontalStack=0;resizeParent=1;resizeParentMax=0;resizeLast=0;collapsible=1;marginBottom=0;whiteSpace=wrap;html=1;fontSize=4;" parent="WIyWlLk6GJQsqaUBKTNV-1" vertex="1">
          <mxGeometry x="740" y="170" width="80" height="70" as="geometry" />
        </mxCell>
        <mxCell id="XVnDwLYDLdE-HTdhM5Gb-5" value="+ Disponivel&lt;div style=&quot;font-size: 4px;&quot;&gt;+ Indisponivel&lt;/div&gt;" style="text;strokeColor=none;fillColor=none;align=left;verticalAlign=top;spacingLeft=4;spacingRight=4;overflow=hidden;rotatable=0;points=[[0,0.5],[1,0.5]];portConstraint=eastwest;whiteSpace=wrap;html=1;fontSize=4;" parent="XVnDwLYDLdE-HTdhM5Gb-4" vertex="1">
          <mxGeometry y="26" width="80" height="44" as="geometry" />
        </mxCell>
        <mxCell id="XVnDwLYDLdE-HTdhM5Gb-8" value="Avaliação&lt;div&gt;&lt;br&gt;&lt;/div&gt;" style="swimlane;fontStyle=0;align=center;verticalAlign=middle;childLayout=stackLayout;horizontal=1;startSize=26;horizontalStack=0;resizeParent=1;resizeParentMax=0;resizeLast=0;collapsible=1;marginBottom=0;whiteSpace=wrap;html=1;strokeColor=default;fontFamily=Helvetica;fontSize=4;fontColor=default;fillColor=none;" parent="WIyWlLk6GJQsqaUBKTNV-1" vertex="1">
          <mxGeometry x="640" y="398" width="110" height="104" as="geometry" />
        </mxCell>
        <mxCell id="XVnDwLYDLdE-HTdhM5Gb-9" value="+ id_avaliacao: uuid&lt;div&gt;+ id_aluno: uuid&lt;/div&gt;&lt;div&gt;+ id_cupom: uuid&lt;/div&gt;&lt;div&gt;+ nota: int&lt;/div&gt;&lt;div&gt;+ feedback: String&lt;/div&gt;&lt;div&gt;+ created_at: Timestamps&lt;/div&gt;" style="text;strokeColor=none;fillColor=none;align=left;verticalAlign=top;spacingLeft=4;spacingRight=4;overflow=hidden;rotatable=0;points=[[0,0.5],[1,0.5]];portConstraint=eastwest;whiteSpace=wrap;html=1;fontFamily=Helvetica;fontSize=4;fontColor=default;fontStyle=0;" parent="XVnDwLYDLdE-HTdhM5Gb-8" vertex="1">
          <mxGeometry y="26" width="110" height="44" as="geometry" />
        </mxCell>
        <mxCell id="XVnDwLYDLdE-HTdhM5Gb-10" value="" style="line;strokeWidth=1;fillColor=none;align=center;verticalAlign=middle;spacingTop=-1;spacingLeft=3;spacingRight=3;rotatable=0;labelPosition=right;points=[];portConstraint=eastwest;strokeColor=default;fontFamily=Helvetica;fontSize=4;fontColor=default;fontStyle=0;" parent="XVnDwLYDLdE-HTdhM5Gb-8" vertex="1">
          <mxGeometry y="70" width="110" height="8" as="geometry" />
        </mxCell>
        <mxCell id="XVnDwLYDLdE-HTdhM5Gb-11" value="+ avaliar (avaliacao: Avaliacao): void" style="text;strokeColor=none;fillColor=none;align=left;verticalAlign=top;spacingLeft=4;spacingRight=4;overflow=hidden;rotatable=0;points=[[0,0.5],[1,0.5]];portConstraint=eastwest;whiteSpace=wrap;html=1;fontFamily=Helvetica;fontSize=4;fontColor=default;fontStyle=0;" parent="XVnDwLYDLdE-HTdhM5Gb-8" vertex="1">
          <mxGeometry y="78" width="110" height="26" as="geometry" />
        </mxCell>
        <mxCell id="OdBVhsZsT7aNZfik-Ee8-0" value="" style="endArrow=open;endSize=4;dashed=1;html=1;rounded=0;startSize=3;jumpSize=3;" edge="1" parent="WIyWlLk6GJQsqaUBKTNV-1">
          <mxGeometry width="160" relative="1" as="geometry">
            <mxPoint x="280" y="440" as="sourcePoint" />
            <mxPoint x="310" y="440" as="targetPoint" />
          </mxGeometry>
        </mxCell>
        <mxCell id="OdBVhsZsT7aNZfik-Ee8-1" value="" style="endArrow=open;endSize=4;dashed=1;html=1;rounded=0;startSize=3;jumpSize=3;" edge="1" parent="WIyWlLk6GJQsqaUBKTNV-1">
          <mxGeometry width="160" relative="1" as="geometry">
            <mxPoint x="280" y="150" as="sourcePoint" />
            <mxPoint x="310" y="150" as="targetPoint" />
          </mxGeometry>
        </mxCell>
        <mxCell id="OdBVhsZsT7aNZfik-Ee8-10" value="" style="edgeStyle=entityRelationEdgeStyle;fontSize=12;html=1;endArrow=ERmandOne;startArrow=ERmandOne;rounded=0;entryX=1;entryY=0.5;entryDx=0;entryDy=0;exitX=-0.037;exitY=0.383;exitDx=0;exitDy=0;exitPerimeter=0;" edge="1" parent="WIyWlLk6GJQsqaUBKTNV-1" source="GGQ6fwsEuKa8pnycy1Hb-1" target="S34Lp0AM1BOrtF_JxziZ-1">
          <mxGeometry width="100" height="100" relative="1" as="geometry">
            <mxPoint x="530" y="220" as="sourcePoint" />
            <mxPoint x="590" y="210" as="targetPoint" />
            <Array as="points">
              <mxPoint x="515" y="210" />
              <mxPoint x="470" y="150" />
              <mxPoint x="460" y="130" />
              <mxPoint x="470" y="126" />
              <mxPoint x="530" y="160" />
              <mxPoint x="510" y="150" />
            </Array>
          </mxGeometry>
        </mxCell>
        <mxCell id="OdBVhsZsT7aNZfik-Ee8-13" value="1" style="edgeLabel;html=1;align=center;verticalAlign=top;resizable=0;points=[];fontSize=6;" vertex="1" connectable="0" parent="OdBVhsZsT7aNZfik-Ee8-10">
          <mxGeometry x="-0.8673" y="1" relative="1" as="geometry">
            <mxPoint as="offset" />
          </mxGeometry>
        </mxCell>
        <mxCell id="OdBVhsZsT7aNZfik-Ee8-14" value="1" style="edgeLabel;html=1;align=center;verticalAlign=top;resizable=0;points=[];fontSize=6;" vertex="1" connectable="0" parent="OdBVhsZsT7aNZfik-Ee8-10">
          <mxGeometry x="0.8805" y="-1" relative="1" as="geometry">
            <mxPoint as="offset" />
          </mxGeometry>
        </mxCell>
        <mxCell id="OdBVhsZsT7aNZfik-Ee8-17" value="" style="edgeStyle=entityRelationEdgeStyle;fontSize=12;html=1;endArrow=ERoneToMany;rounded=0;exitX=0.482;exitY=1.017;exitDx=0;exitDy=0;exitPerimeter=0;entryX=0.535;entryY=-0.029;entryDx=0;entryDy=0;entryPerimeter=0;" edge="1" parent="WIyWlLk6GJQsqaUBKTNV-1" source="S34Lp0AM1BOrtF_JxziZ-3" target="K5k7aHJ0knSRKEM8WF4J-0">
          <mxGeometry width="100" height="100" relative="1" as="geometry">
            <mxPoint x="390" y="320" as="sourcePoint" />
            <mxPoint x="520" y="480" as="targetPoint" />
            <Array as="points">
              <mxPoint x="380" y="290" />
              <mxPoint x="410" y="330" />
              <mxPoint x="340" y="320" />
              <mxPoint x="360" y="330" />
              <mxPoint x="430" y="370" />
              <mxPoint x="413" y="306.0540000000001" />
              <mxPoint x="360" y="210" />
              <mxPoint x="367.98" y="339.0440000000001" />
              <mxPoint x="357.98" y="239.0440000000001" />
              <mxPoint x="337.98" y="229.0440000000001" />
              <mxPoint x="287.98" y="269.0440000000001" />
              <mxPoint x="412.96000000000004" y="329.0440000000001" />
              <mxPoint x="402.96000000000004" y="269.0440000000001" />
            </Array>
          </mxGeometry>
        </mxCell>
        <mxCell id="OdBVhsZsT7aNZfik-Ee8-25" value="1" style="edgeLabel;html=1;align=center;verticalAlign=top;resizable=0;points=[];fontSize=6;" vertex="1" connectable="0" parent="OdBVhsZsT7aNZfik-Ee8-17">
          <mxGeometry x="-0.7282" y="-2" relative="1" as="geometry">
            <mxPoint x="-6" y="-4" as="offset" />
          </mxGeometry>
        </mxCell>
        <mxCell id="OdBVhsZsT7aNZfik-Ee8-26" value="n" style="edgeLabel;html=1;align=center;verticalAlign=bottom;resizable=0;points=[];fontSize=6;" vertex="1" connectable="0" parent="OdBVhsZsT7aNZfik-Ee8-17">
          <mxGeometry x="0.8724" y="1" relative="1" as="geometry">
            <mxPoint as="offset" />
          </mxGeometry>
        </mxCell>
        <mxCell id="OdBVhsZsT7aNZfik-Ee8-27" value="" style="edgeStyle=entityRelationEdgeStyle;fontSize=12;html=1;endArrow=ERzeroToMany;endFill=1;startArrow=ERzeroToMany;rounded=0;entryX=-0.014;entryY=0.656;entryDx=0;entryDy=0;entryPerimeter=0;exitX=1.015;exitY=0.397;exitDx=0;exitDy=0;exitPerimeter=0;" edge="1" parent="WIyWlLk6GJQsqaUBKTNV-1" target="XVnDwLYDLdE-HTdhM5Gb-9">
          <mxGeometry width="100" height="100" relative="1" as="geometry">
            <mxPoint x="429.99999999999994" y="463.998" as="sourcePoint" />
            <mxPoint x="726.6599999999999" y="447.97999999999996" as="targetPoint" />
            <Array as="points">
              <mxPoint x="368.2" y="546.56" />
            </Array>
          </mxGeometry>
        </mxCell>
        <mxCell id="OdBVhsZsT7aNZfik-Ee8-28" value="n" style="edgeLabel;html=1;align=center;verticalAlign=top;resizable=0;points=[];fontSize=6;" vertex="1" connectable="0" parent="OdBVhsZsT7aNZfik-Ee8-27">
          <mxGeometry x="-0.8035" y="1" relative="1" as="geometry">
            <mxPoint as="offset" />
          </mxGeometry>
        </mxCell>
        <mxCell id="OdBVhsZsT7aNZfik-Ee8-29" value="n" style="edgeLabel;html=1;align=center;verticalAlign=top;resizable=0;points=[];fontSize=6;" vertex="1" connectable="0" parent="OdBVhsZsT7aNZfik-Ee8-27">
          <mxGeometry x="0.7927" y="1" relative="1" as="geometry">
            <mxPoint as="offset" />
          </mxGeometry>
        </mxCell>
        <mxCell id="OdBVhsZsT7aNZfik-Ee8-30" value="" style="edgeStyle=entityRelationEdgeStyle;fontSize=12;html=1;endArrow=ERoneToMany;rounded=0;exitX=1.02;exitY=0.161;exitDx=0;exitDy=0;exitPerimeter=0;entryX=-0.037;entryY=0.506;entryDx=0;entryDy=0;entryPerimeter=0;" edge="1" parent="WIyWlLk6GJQsqaUBKTNV-1" source="S34Lp0AM1BOrtF_JxziZ-1" target="XVnDwLYDLdE-HTdhM5Gb-1">
          <mxGeometry width="100" height="100" relative="1" as="geometry">
            <mxPoint x="500" y="170" as="sourcePoint" />
            <mxPoint x="600" y="70" as="targetPoint" />
          </mxGeometry>
        </mxCell>
        <mxCell id="OdBVhsZsT7aNZfik-Ee8-31" value="1" style="edgeLabel;html=1;align=center;verticalAlign=bottom;resizable=0;points=[];fontSize=6;" vertex="1" connectable="0" parent="OdBVhsZsT7aNZfik-Ee8-30">
          <mxGeometry x="-0.8803" y="-2" relative="1" as="geometry">
            <mxPoint as="offset" />
          </mxGeometry>
        </mxCell>
        <mxCell id="OdBVhsZsT7aNZfik-Ee8-32" value="n" style="edgeLabel;html=1;align=center;verticalAlign=bottom;resizable=0;points=[];fontSize=6;" vertex="1" connectable="0" parent="OdBVhsZsT7aNZfik-Ee8-30">
          <mxGeometry x="0.8653" y="-2" relative="1" as="geometry">
            <mxPoint as="offset" />
          </mxGeometry>
        </mxCell>
        <mxCell id="OdBVhsZsT7aNZfik-Ee8-33" value="" style="edgeStyle=entityRelationEdgeStyle;fontSize=12;html=1;endArrow=ERzeroToMany;endFill=1;startArrow=ERzeroToMany;rounded=0;exitX=1.025;exitY=0.302;exitDx=0;exitDy=0;exitPerimeter=0;" edge="1" parent="WIyWlLk6GJQsqaUBKTNV-1" source="K5k7aHJ0knSRKEM8WF4J-1">
          <mxGeometry width="100" height="100" relative="1" as="geometry">
            <mxPoint x="439.99999999999994" y="437.578" as="sourcePoint" />
            <mxPoint x="660" y="273" as="targetPoint" />
            <Array as="points">
              <mxPoint x="378.2" y="520.14" />
              <mxPoint x="580" y="370" />
            </Array>
          </mxGeometry>
        </mxCell>
        <mxCell id="OdBVhsZsT7aNZfik-Ee8-34" value="n" style="edgeLabel;html=1;align=center;verticalAlign=top;resizable=0;points=[];fontSize=6;" vertex="1" connectable="0" parent="OdBVhsZsT7aNZfik-Ee8-33">
          <mxGeometry x="-0.8035" y="1" relative="1" as="geometry">
            <mxPoint as="offset" />
          </mxGeometry>
        </mxCell>
        <mxCell id="OdBVhsZsT7aNZfik-Ee8-35" value="n" style="edgeLabel;html=1;align=center;verticalAlign=top;resizable=0;points=[];fontSize=6;" vertex="1" connectable="0" parent="OdBVhsZsT7aNZfik-Ee8-33">
          <mxGeometry x="0.7927" y="1" relative="1" as="geometry">
            <mxPoint as="offset" />
          </mxGeometry>
        </mxCell>
        <mxCell id="OdBVhsZsT7aNZfik-Ee8-37" value="" style="edgeStyle=entityRelationEdgeStyle;fontSize=12;html=1;endArrow=ERmandOne;startArrow=ERmandOne;rounded=0;entryX=-0.009;entryY=0.383;entryDx=0;entryDy=0;entryPerimeter=0;exitX=1;exitY=0.5;exitDx=0;exitDy=0;" edge="1" parent="WIyWlLk6GJQsqaUBKTNV-1" source="XVnDwLYDLdE-HTdhM5Gb-1" target="XVnDwLYDLdE-HTdhM5Gb-5">
          <mxGeometry width="100" height="100" relative="1" as="geometry">
            <mxPoint x="650" y="310" as="sourcePoint" />
            <mxPoint x="750" y="210" as="targetPoint" />
          </mxGeometry>
        </mxCell>
        <mxCell id="OdBVhsZsT7aNZfik-Ee8-38" value="1" style="edgeLabel;html=1;align=center;verticalAlign=bottom;resizable=0;points=[];fontSize=6;" vertex="1" connectable="0" parent="OdBVhsZsT7aNZfik-Ee8-37">
          <mxGeometry x="-0.6554" y="-1" relative="1" as="geometry">
            <mxPoint as="offset" />
          </mxGeometry>
        </mxCell>
        <mxCell id="OdBVhsZsT7aNZfik-Ee8-39" value="1" style="edgeLabel;html=1;align=center;verticalAlign=bottom;resizable=0;points=[];fontSize=6;" vertex="1" connectable="0" parent="OdBVhsZsT7aNZfik-Ee8-37">
          <mxGeometry x="0.6434" y="-1" relative="1" as="geometry">
            <mxPoint as="offset" />
          </mxGeometry>
        </mxCell>
      </root>
    </mxGraphModel>
  </diagram>
</mxfile>
